<svg xmlns="http://www.w3.org/2000/svg" version="1.1" xmlns:xlink="http://www.w3.org/1999/xlink" width="1000" height="1000"><g clip-path="url(#SvgjsClipPath1003)"><rect width="1000" height="1000" fill="#ffffff"></rect><g transform="matrix(3.5,0,0,3.5,150,150)"><svg xmlns="http://www.w3.org/2000/svg" version="1.1" xmlns:xlink="http://www.w3.org/1999/xlink" width="200" height="200"><svg xmlns="http://www.w3.org/2000/svg" version="1.1" xmlns:xlink="http://www.w3.org/1999/xlink" viewBox="0 0 200 200"><rect width="200" height="200" fill="url('#gradient')"></rect><defs><linearGradient id="gradient" gradientTransform="rotate(45 0.5 0.5)"><stop offset="0%" stop-color="#6b5a29"></stop><stop offset="100%" stop-color="#844e2c"></stop></linearGradient><clipPath id="SvgjsClipPath1003"><rect width="1000" height="1000" x="0" y="0" rx="350" ry="350"></rect></clipPath></defs><g><g fill="#2c2629" transform="matrix(2.1417615617011387,0,0,2.1417615617011387,7.70008057141176,111.5023521168022)" stroke="#3e403f" stroke-width="0.2"><path d="M1.07-14.22L5.58-14.22L8.75-4.33L11.91-14.22L16.43-14.22L16.43 0L12.99 0L12.99-3.32L13.32-10.12L9.88 0L7.62 0L4.17-10.13L4.50-3.32L4.50 0L1.07 0L1.07-14.22ZM27.70 0L24.40 0Q24.23-0.32 24.09-0.95L24.09-0.95Q23.18 0.20 21.55 0.20L21.55 0.20Q20.06 0.20 19.01-0.71Q17.97-1.61 17.97-2.98L17.97-2.98Q17.97-4.70 19.24-5.58Q20.51-6.46 22.93-6.46L22.93-6.46L23.95-6.46L23.95-7.01Q23.95-8.47 22.69-8.47L22.69-8.47Q21.51-8.47 21.51-7.31L21.51-7.31L18.22-7.31Q18.22-8.85 19.53-9.80Q20.83-10.76 22.85-10.76Q24.87-10.76 26.04-9.78Q27.22-8.79 27.25-7.07L27.25-7.07L27.25-2.39Q27.27-0.94 27.70-0.17L27.70-0.17L27.70 0ZM22.34-2.15L22.34-2.15Q22.96-2.15 23.36-2.41Q23.77-2.68 23.95-3.01L23.95-3.01L23.95-4.70L22.99-4.70Q21.27-4.70 21.27-3.15L21.27-3.15Q21.27-2.71 21.57-2.43Q21.88-2.15 22.34-2.15ZM35.62 0L33.31-3.94L32.38-3.01L32.38 0L29.09 0L29.09-15.01L32.38-15.01L32.38-7.04L32.71-7.48L35.20-10.57L39.14-10.57L35.44-6.22L39.38 0L35.62 0ZM40.55-13.19L43.84-13.19L43.84-10.57L45.58-10.57L45.58-8.28L43.84-8.28L43.84-3.45Q43.84-2.85 44.05-2.62Q44.27-2.38 44.90-2.38L44.90-2.38Q45.39-2.38 45.72-2.44L45.72-2.44L45.72-0.09Q44.83 0.20 43.87 0.20L43.87 0.20Q42.17 0.20 41.36-0.61Q40.55-1.41 40.55-3.04L40.55-3.04L40.55-8.28L39.20-8.28L39.20-10.57L40.55-10.57L40.55-13.19ZM56.11 0L52.82 0Q52.65-0.32 52.51-0.95L52.51-0.95Q51.60 0.20 49.97 0.20L49.97 0.20Q48.48 0.20 47.43-0.71Q46.39-1.61 46.39-2.98L46.39-2.98Q46.39-4.70 47.66-5.58Q48.93-6.46 51.35-6.46L51.35-6.46L52.36-6.46L52.36-7.01Q52.36-8.47 51.10-8.47L51.10-8.47Q49.93-8.47 49.93-7.31L49.93-7.31L46.64-7.31Q46.64-8.85 47.94-9.80Q49.25-10.76 51.27-10.76Q53.29-10.76 54.46-9.78Q55.63-8.79 55.66-7.07L55.66-7.07L55.66-2.39Q55.68-0.94 56.11-0.17L56.11-0.17L56.11 0ZM50.76-2.15L50.76-2.15Q51.38-2.15 51.78-2.41Q52.19-2.68 52.36-3.01L52.36-3.01L52.36-4.70L51.41-4.70Q49.69-4.70 49.69-3.15L49.69-3.15Q49.69-2.71 49.99-2.43Q50.29-2.15 50.76-2.15ZM67.29-5.36L67.29-5.20Q67.29-2.60 66.22-1.20Q65.15 0.20 63.19 0.20L63.19 0.20Q61.58 0.20 60.60-1.08L60.60-1.08L60.46 0L57.51 0L57.51-15L60.80-15L60.80-9.72Q61.72-10.76 63.17-10.76L63.17-10.76Q65.15-10.76 66.22-9.35Q67.29-7.93 67.29-5.36L67.29-5.36ZM63.99-5.40L63.99-5.40Q63.99-6.92 63.59-7.57Q63.18-8.22 62.34-8.22L62.34-8.22Q61.23-8.22 60.80-7.37L60.80-7.37L60.80-3.17Q61.22-2.33 62.36-2.33L62.36-2.33Q63.53-2.33 63.84-3.47L63.84-3.47Q63.99-4.02 63.99-5.40ZM69.29-13.19L72.58-13.19L72.58-10.57L74.32-10.57L74.32-8.28L72.58-8.28L72.58-3.45Q72.58-2.85 72.79-2.62Q73.01-2.38 73.64-2.38L73.64-2.38Q74.13-2.38 74.46-2.44L74.46-2.44L74.46-0.09Q73.57 0.20 72.61 0.20L72.61 0.20Q70.91 0.20 70.10-0.61Q69.29-1.41 69.29-3.04L69.29-3.04L69.29-8.28L67.94-8.28L67.94-10.57L69.29-10.57L69.29-13.19ZM78.16-10.57L79.83-4.61L81.59-10.57L85.12-10.57L80.81 1.77L80.63 2.22Q79.71 4.27 77.38 4.27L77.38 4.27Q76.74 4.27 76.03 4.07L76.03 4.07L76.03 1.72L76.46 1.72Q77.15 1.72 77.51 1.52Q77.88 1.32 78.06 0.80L78.06 0.80L78.32 0.10L74.65-10.57L78.16-10.57Z"></path></g></g></svg></svg></g></g></svg>